Release info:

General
Format                                   : Matroska
Format version                           : Version 4 / Version 2
File size                                : 661 MiB
Duration                                 : 2h 17mn
Overall bit rate                         : 672 Kbps
Movie name                               : The Master 2012 DVDRip English

Video
ID                                       : 2
Format                                   : AVC
Format/Info                              : Advanced Video Codec
Format profile                           : High@L3.0
Format settings, CABAC                   : Yes
Format settings, ReFrames                : 4 frames
Codec ID                                 : V_MPEG4/ISO/AVC
Duration                                 : 2h 17mn
Bit rate                                 : 543 Kbps
Width                                    : 720 pixels
Height                                   : 384 pixels
Display aspect ratio                     : 1.85:1
Frame rate mode                          : Constant
Frame rate                               : 23.976 fps
Color space                              : YUV
Chroma subsampling                       : 4:2:0
Bit depth                                : 8 bits
Scan type                                : Progressive
Bits/(Pixel*Frame)                       : 0.082
Stream size                              : 522 MiB (79%)
Title                                    : The Master 2012 DVDRip English
Language                                 : English
Default                                  : Yes
Forced                                   : No

Audio
ID                                       : 1
Format                                   : MPEG Audio
Format version                           : Version 1
Format profile                           : Layer 3
Mode                                     : Joint stereo
Mode extension                           : MS Stereo
Codec ID                                 : A_MPEG/L3
Codec ID/Hint                            : MP3
Duration                                 : 2h 17mn
Bit rate mode                            : Constant
Bit rate                                 : 128 Kbps
Channel(s)                               : 2 channels
Sampling rate                            : 44.1 KHz
Compression mode                         : Lossy
Stream size                              : 126 MiB (19%)
Title                                    : The Master 2012 DVDRip English
Language                                 : English
Default                                  : Yes
Forced                                   : No



Source:
credit to original movie ripper  (Thanks)

IMDB Info:

A Naval veteran arrives home from war unsettled and uncertain of his future - until he is tantalized by The Cause and its charismatic leader.

Director: Paul Thomas Anderson
Writer: Paul Thomas Anderson
Stars: Philip Seymour Hoffman, Joaquin Phoenix, Amy Adams

Genres: Drama
 
http://www.imdb.com/title/tt1560747/

Screen Shot:
 
http://www.shotpix.com/images/80327334400049441589.png 
http://www.shotpix.com/images/18584790593041854503.png 
http://www.shotpix.com/images/32009159240263531053.png 
http://www.shotpix.com/images/97497463918338081103.png